<?xml version="1.0" standalone="no"?>
<!DOCTYPE svg PUBLIC "-//W3C//DTD SVG 20010904//EN"
 "http://www.w3.org/TR/2001/REC-SVG-20010904/DTD/svg10.dtd">
<svg version="1.0" xmlns="http://www.w3.org/2000/svg"
 width="1080.000000pt" height="354.000000pt" viewBox="0 0 1080.000000 354.000000"
 preserveAspectRatio="xMidYMid meet">

<g transform="translate(0.000000,354.000000) scale(0.100000,-0.100000)"
fill="#000000" stroke="none">
<path d="M1517 2704 c-3 -3 -1 -18 5 -33 6 -14 16 -46 22 -71 l12 -45 93 -5
94 -5 69 -230 c38 -126 121 -405 184 -620 63 -214 126 -414 139 -443 36 -78
127 -164 222 -210 l78 -37 833 -3 c457 -1 833 1 833 5 5 27 7 211 3 226 -5 16
-52 17 -800 17 -787 0 -796 0 -844 21 -38 16 -58 34 -85 75 -20 30 -35 62 -33
71 2 13 44 25 203 55 110 21 360 70 555 108 195 38 441 85 545 105 444 85 453
87 457 104 3 9 2 154 0 322 l-4 307 -31 6 c-16 3 -477 3 -1024 0 l-993 -6 -14
33 c-8 19 -29 85 -47 147 l-33 112 -216 0 c-119 0 -219 -3 -223 -6z"/>
<path d="M5103 2458 c-51 -81 -204 -440 -305 -720 -5 -14 -23 -32 -39 -38 -31
-13 -36 -29 -17 -60 10 -16 5 -42 -34 -157 -94 -282 -95 -296 -42 -343 71 -62
134 -76 134 -30 0 27 39 165 84 300 20 58 36 106 36 108 0 8 105 50 112 46 5
-3 22 -32 38 -64 80 -158 226 -371 281 -411 19 -13 38 -19 52 -15 28 7 156
107 157 122 0 6 -11 16 -25 22 -39 18 -110 88 -171 168 -59 79 -184 272 -184
285 0 4 57 54 128 110 242 195 468 398 533 480 21 27 28 45 24 59 -9 30 -105
170 -116 170 -5 0 -20 -21 -33 -47 -32 -65 -102 -150 -266 -328 -134 -144
-336 -336 -383 -362 -64 -36 -62 -1 13 178 83 197 153 338 195 393 19 25 35
53 35 60 0 16 -143 116 -166 116 -7 0 -26 -19 -41 -42z"/>
<path d="M8356 2438 c-8 -12 -32 -59 -52 -103 -21 -44 -42 -83 -47 -86 -4 -3
-83 -9 -175 -12 -91 -4 -170 -11 -176 -17 -6 -6 -4 -15 5 -26 27 -33 75 -44
194 -44 63 0 115 -3 115 -7 0 -5 -38 -120 -84 -257 l-84 -250 -64 -53 c-86
-71 -104 -71 -73 4 37 87 71 274 61 329 -9 43 -65 108 -119 136 -34 17 -43 18
-63 7 -27 -14 -87 -98 -134 -186 -65 -125 -57 -47 11 94 21 45 39 84 39 86 0
9 -90 27 -134 27 l-45 0 -22 -57 c-12 -32 -46 -129 -75 -217 -59 -175 -95
-245 -196 -386 -121 -169 -126 -148 -31 140 36 108 118 308 134 324 16 17 10
52 -13 73 -45 40 -109 74 -129 68 -51 -17 -195 -225 -305 -443 -77 -152 -94
-179 -94 -149 0 37 103 303 166 431 14 27 22 57 19 67 -6 19 -119 99 -139 99
-38 0 -176 -199 -296 -427 -34 -65 -57 -84 -46 -37 13 50 108 299 143 373 l36
75 -27 21 c-34 27 -118 58 -138 50 -15 -6 -65 -106 -87 -177 -7 -21 -17 -40
-22 -44 -16 -10 -141 -34 -149 -29 -4 3 -10 18 -13 35 -12 56 -127 195 -172
206 -31 8 -91 -12 -132 -42 -91 -68 -203 -275 -252 -466 -60 -232 -52 -317 40
-403 77 -72 154 -94 217 -61 34 18 100 87 139 146 59 88 131 288 148 411 9 59
11 62 69 88 81 35 88 29 61 -49 -20 -57 -61 -228 -74 -310 -19 -114 -15 -162
18 -206 33 -46 89 -96 103 -92 5 2 31 60 58 129 48 127 207 459 220 459 18 0
15 -19 -16 -110 -42 -121 -77 -275 -68 -304 14 -46 123 -132 159 -124 9 2 33
47 59 110 24 58 59 135 78 170 20 34 50 92 69 128 43 85 99 167 99 146 0 -10
-14 -59 -31 -109 -17 -51 -42 -139 -55 -196 -20 -91 -21 -108 -10 -136 15 -35
71 -84 129 -111 45 -22 58 -16 102 44 17 22 36 43 44 46 16 7 16 9 -28 -156
-42 -161 -72 -313 -65 -331 7 -18 68 -62 107 -76 32 -12 29 -17 47 84 7 39 30
147 51 241 21 94 39 174 39 177 0 14 25 6 59 -18 67 -45 101 -55 145 -40 48
17 114 81 166 161 25 37 64 78 102 107 35 25 80 61 100 78 21 18 40 30 44 27
3 -3 -4 -45 -15 -93 -32 -132 -29 -160 22 -225 51 -64 90 -89 115 -74 23 14
107 126 144 192 40 69 58 69 58 -3 0 -80 23 -129 78 -165 90 -59 120 -37 217
161 31 63 61 116 67 118 7 2 8 -16 3 -57 -5 -45 -3 -67 9 -88 21 -41 78 -99
114 -118 31 -16 32 -16 65 17 65 66 172 248 216 370 30 81 54 177 47 184 -9
10 -21 -5 -57 -72 -39 -74 -174 -277 -199 -300 -10 -9 -20 -12 -23 -8 -8 12
35 189 79 324 40 127 71 205 115 293 17 32 28 65 25 73 -3 7 -27 23 -53 34
-105 46 -130 44 -153 -11 -12 -30 -42 -41 -55 -20 -15 24 -106 60 -150 60 -43
0 -50 -4 -97 -52 -58 -62 -131 -204 -178 -348 -24 -72 -45 -114 -92 -180 -145
-201 -182 -228 -144 -102 8 26 31 101 51 167 32 105 65 202 155 465 13 36 29
77 37 93 l14 27 123 0 c67 0 171 -5 230 -11 59 -6 110 -8 113 -5 8 8 -26 94
-40 103 -7 5 -93 10 -192 13 -203 6 -210 9 -160 74 15 19 25 43 23 52 -3 18
-86 69 -130 79 -21 5 -30 2 -42 -17z m459 -512 c18 -13 19 -18 7 -62 -17 -63
-99 -235 -201 -419 -91 -164 -109 -191 -124 -176 -24 24 82 364 164 521 55
107 66 122 94 138 26 15 37 15 60 -2z m-1001 -4 c8 -13 -46 -210 -89 -327 -53
-147 -107 -247 -143 -268 -48 -28 -88 -37 -107 -23 -16 11 -15 18 13 87 68
168 180 378 262 492 32 45 53 57 64 39z m-1780 -101 c-9 -80 -1 -107 36 -119
17 -7 30 -18 30 -28 0 -31 -62 -199 -108 -292 -52 -107 -101 -159 -132 -142
-25 13 -26 63 -6 170 29 147 120 410 158 458 21 25 28 11 22 -47z"/>
<path d="M2510 929 c-56 -11 -117 -54 -155 -110 -37 -55 -46 -147 -21 -212 32
-83 137 -157 224 -157 91 0 180 58 224 145 56 109 5 250 -113 310 -56 29 -101
36 -159 24z"/>
<path d="M3807 930 c-84 -15 -178 -115 -191 -205 -21 -135 103 -275 242 -275
103 0 207 81 237 185 19 64 15 101 -16 160 -30 56 -57 83 -109 110 -52 26
-108 34 -163 25z"/>
</g>
</svg>
